<mxfile host="app.diagrams.net" modified="2023-10-01T09:26:52.994Z" agent="Mozilla/5.0 (Windows NT 10.0; Win64; x64) AppleWebKit/537.36 (KHTML, like Gecko) Chrome/117.0.0.0 Safari/537.36" etag="rOL5yXbquqpKwgeTVeF5" version="22.0.0" type="github">
  <diagram name="Page-1" id="LjUncfI7UYeBeipBn3P6">
    <mxGraphModel dx="768" dy="486" grid="1" gridSize="10" guides="1" tooltips="1" connect="1" arrows="1" fold="1" page="1" pageScale="1" pageWidth="827" pageHeight="1169" math="0" shadow="0">
      <root>
        <mxCell id="0" />
        <mxCell id="1" parent="0" />
        <mxCell id="cM24sJDnTewUazxjb0rT-2" value="Person" style="html=1;whiteSpace=wrap;" vertex="1" parent="1">
          <mxGeometry x="240" y="160" width="110" height="50" as="geometry" />
        </mxCell>
        <mxCell id="cM24sJDnTewUazxjb0rT-3" value="Letterbox&lt;span style=&quot;white-space: pre;&quot;&gt;&#x9;&lt;/span&gt;" style="html=1;whiteSpace=wrap;" vertex="1" parent="1">
          <mxGeometry x="70" y="280" width="110" height="50" as="geometry" />
        </mxCell>
        <mxCell id="cM24sJDnTewUazxjb0rT-4" value="Letter" style="html=1;whiteSpace=wrap;" vertex="1" parent="1">
          <mxGeometry x="240" y="280" width="110" height="50" as="geometry" />
        </mxCell>
        <mxCell id="cM24sJDnTewUazxjb0rT-5" value="PostOffice" style="html=1;whiteSpace=wrap;" vertex="1" parent="1">
          <mxGeometry x="470" y="220" width="110" height="50" as="geometry" />
        </mxCell>
        <mxCell id="cM24sJDnTewUazxjb0rT-6" value="Postie" style="html=1;whiteSpace=wrap;" vertex="1" parent="1">
          <mxGeometry x="470" y="330" width="110" height="50" as="geometry" />
        </mxCell>
        <mxCell id="cM24sJDnTewUazxjb0rT-7" value="" style="endArrow=none;html=1;edgeStyle=orthogonalEdgeStyle;rounded=0;exitX=1;exitY=0.5;exitDx=0;exitDy=0;" edge="1" parent="1" source="cM24sJDnTewUazxjb0rT-3" target="cM24sJDnTewUazxjb0rT-4">
          <mxGeometry relative="1" as="geometry">
            <mxPoint x="180" y="310" as="sourcePoint" />
            <mxPoint x="220" y="320" as="targetPoint" />
          </mxGeometry>
        </mxCell>
        <mxCell id="cM24sJDnTewUazxjb0rT-8" value="1" style="edgeLabel;resizable=0;html=1;align=left;verticalAlign=bottom;" connectable="0" vertex="1" parent="cM24sJDnTewUazxjb0rT-7">
          <mxGeometry x="-1" relative="1" as="geometry" />
        </mxCell>
        <mxCell id="cM24sJDnTewUazxjb0rT-9" value="1" style="edgeLabel;resizable=0;html=1;align=right;verticalAlign=bottom;" connectable="0" vertex="1" parent="cM24sJDnTewUazxjb0rT-7">
          <mxGeometry x="1" relative="1" as="geometry">
            <mxPoint x="-2" as="offset" />
          </mxGeometry>
        </mxCell>
        <mxCell id="cM24sJDnTewUazxjb0rT-10" value="1" style="endArrow=none;html=1;endSize=12;startArrow=diamondThin;startSize=14;startFill=1;edgeStyle=orthogonalEdgeStyle;align=left;verticalAlign=bottom;rounded=0;exitX=0.445;exitY=-0.018;exitDx=0;exitDy=0;exitPerimeter=0;entryX=0;entryY=0.5;entryDx=0;entryDy=0;endFill=0;" edge="1" parent="1" source="cM24sJDnTewUazxjb0rT-3" target="cM24sJDnTewUazxjb0rT-2">
          <mxGeometry x="-1" y="19" relative="1" as="geometry">
            <mxPoint x="80" y="160" as="sourcePoint" />
            <mxPoint x="119" y="170" as="targetPoint" />
            <mxPoint y="1" as="offset" />
          </mxGeometry>
        </mxCell>
        <mxCell id="cM24sJDnTewUazxjb0rT-14" value="1..*" style="edgeLabel;html=1;align=center;verticalAlign=middle;resizable=0;points=[];" vertex="1" connectable="0" parent="cM24sJDnTewUazxjb0rT-10">
          <mxGeometry x="0.7984" y="2" relative="1" as="geometry">
            <mxPoint x="8" y="-9" as="offset" />
          </mxGeometry>
        </mxCell>
        <mxCell id="cM24sJDnTewUazxjb0rT-15" value="*" style="endArrow=none;html=1;startArrow=diamondThin;startFill=1;edgeStyle=orthogonalEdgeStyle;align=left;verticalAlign=bottom;exitX=0.455;exitY=0;exitDx=0;exitDy=0;exitPerimeter=0;endFill=0;strokeWidth=1;endSize=12;rounded=0;startSize=14;" edge="1" parent="1" source="cM24sJDnTewUazxjb0rT-4">
          <mxGeometry x="-0.9999" y="-5" relative="1" as="geometry">
            <mxPoint x="260" y="250" as="sourcePoint" />
            <mxPoint x="290" y="210" as="targetPoint" />
            <mxPoint as="offset" />
          </mxGeometry>
        </mxCell>
        <mxCell id="cM24sJDnTewUazxjb0rT-29" value="1" style="edgeLabel;html=1;align=center;verticalAlign=middle;resizable=0;points=[];" vertex="1" connectable="0" parent="cM24sJDnTewUazxjb0rT-15">
          <mxGeometry x="0.736" y="-2" relative="1" as="geometry">
            <mxPoint x="4" y="1" as="offset" />
          </mxGeometry>
        </mxCell>
        <mxCell id="cM24sJDnTewUazxjb0rT-18" value="" style="endArrow=none;html=1;edgeStyle=orthogonalEdgeStyle;rounded=0;exitX=1;exitY=0.5;exitDx=0;exitDy=0;entryX=0;entryY=0.5;entryDx=0;entryDy=0;startArrow=classic;startFill=1;startSize=8;" edge="1" parent="1" target="cM24sJDnTewUazxjb0rT-5">
          <mxGeometry relative="1" as="geometry">
            <mxPoint x="350" y="305" as="sourcePoint" />
            <mxPoint x="520" y="304.71000000000004" as="targetPoint" />
            <Array as="points">
              <mxPoint x="430" y="305" />
              <mxPoint x="430" y="245" />
            </Array>
          </mxGeometry>
        </mxCell>
        <mxCell id="cM24sJDnTewUazxjb0rT-20" value="1" style="edgeLabel;resizable=0;html=1;align=right;verticalAlign=bottom;" connectable="0" vertex="1" parent="cM24sJDnTewUazxjb0rT-18">
          <mxGeometry x="1" relative="1" as="geometry">
            <mxPoint x="-4" as="offset" />
          </mxGeometry>
        </mxCell>
        <mxCell id="cM24sJDnTewUazxjb0rT-21" value="" style="endArrow=none;html=1;edgeStyle=orthogonalEdgeStyle;rounded=0;exitX=1;exitY=0.5;exitDx=0;exitDy=0;" edge="1" parent="1">
          <mxGeometry relative="1" as="geometry">
            <mxPoint x="350" y="305" as="sourcePoint" />
            <mxPoint x="470" y="360" as="targetPoint" />
            <Array as="points">
              <mxPoint x="430" y="305" />
              <mxPoint x="430" y="360" />
            </Array>
          </mxGeometry>
        </mxCell>
        <mxCell id="cM24sJDnTewUazxjb0rT-23" value="1" style="edgeLabel;resizable=0;html=1;align=right;verticalAlign=bottom;" connectable="0" vertex="1" parent="cM24sJDnTewUazxjb0rT-21">
          <mxGeometry x="1" relative="1" as="geometry">
            <mxPoint x="-3" y="19" as="offset" />
          </mxGeometry>
        </mxCell>
        <mxCell id="cM24sJDnTewUazxjb0rT-30" value="1..*" style="edgeLabel;html=1;align=center;verticalAlign=middle;resizable=0;points=[];" vertex="1" connectable="0" parent="cM24sJDnTewUazxjb0rT-21">
          <mxGeometry x="-0.5917" relative="1" as="geometry">
            <mxPoint x="-23" y="-14" as="offset" />
          </mxGeometry>
        </mxCell>
        <mxCell id="cM24sJDnTewUazxjb0rT-24" value="" style="endArrow=diamondThin;html=1;edgeStyle=orthogonalEdgeStyle;rounded=0;exitX=0.5;exitY=1;exitDx=0;exitDy=0;entryX=0.5;entryY=0;entryDx=0;entryDy=0;endFill=1;startSize=12;endSize=12;" edge="1" parent="1" source="cM24sJDnTewUazxjb0rT-5" target="cM24sJDnTewUazxjb0rT-6">
          <mxGeometry relative="1" as="geometry">
            <mxPoint x="520" y="280" as="sourcePoint" />
            <mxPoint x="680" y="280" as="targetPoint" />
          </mxGeometry>
        </mxCell>
      </root>
    </mxGraphModel>
  </diagram>
</mxfile>
